# xmcd CD database file
#
# Track frame offsets:
#	150
#	12700
#	29975
#	41325
#	59950
#	71025
#	86280
#	102010
#	118360
#	135350
#	155600
#	169312
#	185605
#	203780
#	218175
#
# Disc length: 3150 seconds
#
# Revision: 0
# Processed by: cddbd v1.5.1PL0 Copyright (c) Steve Scherf et al.
# Submitted via: CDex 1.50
#
DISCID=e50c4c0f
DTITLE=宗次郎 - こころのうた・六 望
DYEAR=1991
DGENRE=New Age
TTITLE0=この広い野原いっぱい
TTITLE1=花のメルヘン
TTITLE2=若者たち
TTITLE3=贈る言葉
TTITLE4=見上げてごらん夜の星を
TTITLE5=希望
TTITLE6=夜明けのうた
TTITLE7=白いブランコ
TTITLE8=誰もいない海
TTITLE9=「いちご白書」をもう一度
TTITLE10=空に星があるように
TTITLE11=時には母のない子のように
TTITLE12=遠い世界に
TTITLE13=翼を下さい
TTITLE14=風
EXTD=YEAR: 1991
EXTT0=
EXTT1=
EXTT2=
EXTT3=
EXTT4=
EXTT5=
EXTT6=
EXTT7=
EXTT8=
EXTT9=
EXTT10=
EXTT11=
EXTT12=
EXTT13=
EXTT14=
PLAYORDER=
